# xmcd
# Copyright (C) 1995-1998 Ti Kan
#
# Track frame offsets:
#       150
#       22423
#       46351
#       67947
#       91990
#       111919
#       128539
#       154340
#       178939
#       207278
#       225546
#
# Disc length: 3309 seconds
#
# Revision: 0
# Processed by: cddbd v1.5PL3 Copyright (c) Steve Scherf et al.
# Submitted via: CD-Transfer v1.0
#
DISCID=950ceb0b
DTITLE=Krizz - Blue And Grey
DYEAR=2004
DGENRE=
TTITLE0=Desperate Wind
TTITLE1=Cruisin'
TTITLE2=Nighttime Keeper
TTITLE3=Blue And Grey
TTITLE4=Wizards And Kings
TTITLE5=Brave Man
TTITLE6=Shadows
TTITLE7=Hello There
TTITLE8=Close To Heaven
TTITLE9=As Long As I Have You
TTITLE10=Winds Don't Howl
EXTD=
EXTT0=
EXTT1=
EXTT2=
EXTT3=
EXTT4=
EXTT5=
EXTT6=
EXTT7=
EXTT8=
EXTT9=
EXTT10=
PLAYORDER=
